<mxfile host="65bd71144e">
    <diagram id="0DfVgZLiSyY7PZttRIFc" name="Page-1">
        <mxGraphModel dx="1066" dy="804" grid="1" gridSize="10" guides="1" tooltips="1" connect="1" arrows="1" fold="1" page="1" pageScale="1" pageWidth="850" pageHeight="1100" math="0" shadow="0">
            <root>
                <mxCell id="0"/>
                <mxCell id="1" parent="0"/>
                <mxCell id="39" value="" style="rounded=0;whiteSpace=wrap;html=1;strokeColor=none;strokeWidth=3;fontColor=#ffffff;fillColor=#60a917;" parent="1" vertex="1">
                    <mxGeometry x="270" y="100" width="430" height="210" as="geometry"/>
                </mxCell>
                <mxCell id="6" value="CLASSI" style="rounded=0;whiteSpace=wrap;html=1;fillColor=#60a917;fontColor=#ffffff;strokeColor=#2D7600;" parent="1" vertex="1">
                    <mxGeometry x="660" y="10" width="80" height="20" as="geometry"/>
                </mxCell>
                <mxCell id="16" value="ISTANZE" style="rounded=0;whiteSpace=wrap;html=1;fontColor=#ffffff;fillColor=#1ba1e2;strokeColor=#006EAF;" parent="1" vertex="1">
                    <mxGeometry x="750" y="10" width="90" height="20" as="geometry"/>
                </mxCell>
                <mxCell id="21" value="ID&lt;br&gt;cookies???&lt;br&gt;carta di credito &lt;b&gt;&lt;i&gt;boolean&lt;/i&gt;&lt;/b&gt;&amp;nbsp;" style="rounded=0;whiteSpace=wrap;html=1;fontColor=#ffffff;fillColor=#60a917;strokeColor=#FFFFFF;perimeterSpacing=3;strokeWidth=4;" parent="1" vertex="1">
                    <mxGeometry x="280" y="120" width="150" height="170" as="geometry"/>
                </mxCell>
                <mxCell id="22" value="UTENTI REGISTRATI&lt;br&gt;password &lt;b&gt;&lt;i&gt;string&lt;/i&gt;&lt;/b&gt;&lt;br&gt;nome &lt;i&gt;&lt;b&gt;string&lt;/b&gt;&lt;/i&gt;&lt;br&gt;cognome &lt;b&gt;&lt;i&gt;string&lt;/i&gt;&lt;/b&gt;" style="rounded=0;whiteSpace=wrap;html=1;fontColor=#ffffff;fillColor=#60a917;strokeColor=#2D7600;" parent="1" vertex="1">
                    <mxGeometry x="280" y="384.99999999999994" width="200" height="120" as="geometry"/>
                </mxCell>
                <mxCell id="23" value="UTENTI NON REGISTRATI" style="rounded=0;whiteSpace=wrap;html=1;fontColor=#ffffff;fillColor=#60a917;strokeColor=#2D7600;" parent="1" vertex="1">
                    <mxGeometry x="500" y="384.99999999999994" width="210" height="120" as="geometry"/>
                </mxCell>
                <mxCell id="40" value="UTENTI" style="rounded=0;whiteSpace=wrap;html=1;strokeColor=none;strokeWidth=3;fontColor=#ffffff;fillColor=#60a917;" parent="1" vertex="1">
                    <mxGeometry x="430" y="100" width="120" height="20" as="geometry"/>
                </mxCell>
                <mxCell id="41" value="&lt;font color=&quot;#3333ff&quot;&gt;mettere prodotti nel carrello&lt;br&gt;pagare&lt;br&gt;&lt;/font&gt;" style="rounded=0;whiteSpace=wrap;html=1;strokeColor=#FFFFFF;strokeWidth=4;fontColor=#ffffff;fillColor=#60a917;" parent="1" vertex="1">
                    <mxGeometry x="440" y="120" width="250" height="170" as="geometry"/>
                </mxCell>
                <mxCell id="42" value="" style="shape=flexArrow;endArrow=classic;html=1;fontColor=#FFFFFF;entryX=0.5;entryY=0;entryDx=0;entryDy=0;exitX=0.322;exitY=1.027;exitDx=0;exitDy=0;exitPerimeter=0;" parent="1" target="22" edge="1" source="39">
                    <mxGeometry width="50" height="50" relative="1" as="geometry">
                        <mxPoint x="420" y="241.55999999999995" as="sourcePoint"/>
                        <mxPoint x="370" y="291.55999999999995" as="targetPoint"/>
                    </mxGeometry>
                </mxCell>
                <mxCell id="44" value="" style="rounded=0;whiteSpace=wrap;html=1;strokeColor=none;strokeWidth=3;fontColor=#ffffff;fillColor=#60a917;" parent="1" vertex="1">
                    <mxGeometry x="280" y="555" width="430" height="140" as="geometry"/>
                </mxCell>
                <mxCell id="45" value="quantitÃ  &lt;i style=&quot;font-weight: bold;&quot;&gt;integer&lt;/i&gt;&lt;br&gt;prezzo&amp;nbsp;&lt;i style=&quot;font-weight: bold;&quot;&gt;integer&lt;/i&gt;&lt;br&gt;nome&amp;nbsp;&lt;b style=&quot;font-style: italic;&quot;&gt;string&lt;/b&gt;&lt;br&gt;sconto&lt;i style=&quot;font-weight: bold;&quot;&gt; boolean&lt;br&gt;&lt;br&gt;&lt;/i&gt;" style="rounded=0;whiteSpace=wrap;html=1;fontColor=#ffffff;fillColor=#60a917;strokeColor=#FFFFFF;perimeterSpacing=3;strokeWidth=4;" parent="1" vertex="1">
                    <mxGeometry x="290" y="585" width="140" height="100" as="geometry"/>
                </mxCell>
                <mxCell id="46" value="PRODOTTI NEL CARRELLO" style="rounded=0;whiteSpace=wrap;html=1;strokeColor=none;strokeWidth=3;fontColor=#ffffff;fillColor=#60a917;" parent="1" vertex="1">
                    <mxGeometry x="405" y="565" width="170" height="10" as="geometry"/>
                </mxCell>
                <mxCell id="47" value="&lt;font color=&quot;#0000ff&quot;&gt;mostrare prodotti nel carrello&lt;/font&gt;" style="rounded=0;whiteSpace=wrap;html=1;strokeColor=#FFFFFF;strokeWidth=4;fontColor=#ffffff;fillColor=#60a917;" parent="1" vertex="1">
                    <mxGeometry x="440" y="585" width="260" height="100" as="geometry"/>
                </mxCell>
                <mxCell id="48" value="FORM??" style="ellipse;whiteSpace=wrap;html=1;strokeWidth=4;" parent="1" vertex="1">
                    <mxGeometry x="240" y="344.21999999999997" width="100" height="80" as="geometry"/>
                </mxCell>
                <mxCell id="49" value="id = 4&lt;br&gt;Paolo &lt;br&gt;Rossi&lt;br&gt;password&lt;br&gt;carta scaduta(false)" style="rounded=0;whiteSpace=wrap;html=1;strokeWidth=4;fontColor=#ffffff;strokeColor=none;fillColor=#1ba1e2;" parent="1" vertex="1">
                    <mxGeometry x="80" y="434.21999999999997" width="140" height="120.78" as="geometry"/>
                </mxCell>
                <mxCell id="53" value="ESEMPIO ISTANZA UTENTE" style="rounded=0;whiteSpace=wrap;html=1;strokeWidth=4;fontColor=#ffffff;fillColor=#1ba1e2;strokeColor=#006EAF;" parent="1" vertex="1">
                    <mxGeometry x="80" y="394.21999999999997" width="140" height="30" as="geometry"/>
                </mxCell>
                <mxCell id="54" value="4 &lt;br&gt;scatolette cibo per gatti&lt;br&gt;3 euro&lt;br&gt;sconto true&lt;br&gt;" style="rounded=0;whiteSpace=wrap;html=1;strokeWidth=4;fontColor=#ffffff;strokeColor=none;fillColor=#1ba1e2;" parent="1" vertex="1">
                    <mxGeometry x="80" y="615" width="140" height="100" as="geometry"/>
                </mxCell>
                <mxCell id="55" value="ESEMPIO ISTANZA&amp;nbsp;&lt;br&gt;PRODOTTO CARRELLO" style="rounded=0;whiteSpace=wrap;html=1;strokeWidth=4;fontColor=#ffffff;fillColor=#1ba1e2;strokeColor=#006EAF;" parent="1" vertex="1">
                    <mxGeometry x="80" y="575" width="140" height="30" as="geometry"/>
                </mxCell>
                <mxCell id="59" value="" style="shape=flexArrow;endArrow=classic;html=1;fontColor=#FFFFFF;entryX=0.418;entryY=-0.006;entryDx=0;entryDy=0;exitX=0.322;exitY=1.027;exitDx=0;exitDy=0;exitPerimeter=0;entryPerimeter=0;" edge="1" parent="1" target="23">
                    <mxGeometry width="50" height="50" relative="1" as="geometry">
                        <mxPoint x="574.9999999999998" y="315.6700000000001" as="sourcePoint"/>
                        <mxPoint x="546.54" y="385" as="targetPoint"/>
                    </mxGeometry>
                </mxCell>
            </root>
        </mxGraphModel>
    </diagram>
</mxfile>